<?xml version="1.0" standalone="no"?>
<!DOCTYPE svg PUBLIC "-//W3C//DTD SVG 20010904//EN"
 "http://www.w3.org/TR/2001/REC-SVG-20010904/DTD/svg10.dtd">
<svg version="1.0" xmlns="http://www.w3.org/2000/svg"
 width="475.000000pt" height="475.000000pt" viewBox="0 0 475.000000 475.000000"
 preserveAspectRatio="xMidYMid meet">
<metadata>
Created by potrace 1.14, written by Peter Selinger 2001-2017
</metadata>
<g transform="translate(0.000000,475.000000) scale(0.100000,-0.100000)"
fill="#000000" stroke="none">
<path d="M1890 4519 c-101 -15 -123 -20 -131 -25 -5 -3 -19 -7 -32 -10 -52
-10 -65 -13 -117 -34 -57 -22 -201 -97 -210 -108 -3 -4 -21 -19 -41 -34 -110
-82 -169 -161 -169 -227 0 -28 -12 -68 -34 -114 -50 -105 -65 -157 -67 -231
-2 -53 -7 -73 -26 -99 -14 -17 -36 -54 -50 -82 -41 -80 -26 -171 50 -296 49
-80 197 -237 270 -286 20 -14 37 -29 37 -32 0 -4 -34 -18 -75 -30 -42 -13 -78
-27 -81 -32 -3 -5 -16 -9 -29 -9 -13 0 -26 -4 -29 -9 -3 -5 -22 -12 -42 -16
-20 -3 -59 -17 -88 -30 -55 -25 -130 -56 -133 -56 -12 1 -154 -83 -219 -129
-117 -83 -139 -93 -217 -96 -72 -3 -117 -22 -117 -50 0 -9 16 -45 35 -80 19
-35 35 -70 35 -79 0 -9 -23 -38 -51 -64 -40 -38 -52 -56 -56 -89 -5 -41 -5
-41 36 -52 22 -6 80 -13 128 -16 49 -3 99 -7 113 -10 108 -19 210 -22 378 -11
91 6 92 6 87 -16 -13 -52 -7 -244 10 -307 2 -8 7 -37 10 -64 3 -27 8 -52 10
-56 5 -8 -83 -143 -97 -148 -4 -2 -8 -8 -8 -12 0 -5 -21 -43 -46 -85 -92 -152
-129 -336 -109 -553 2 -23 0 -42 -5 -42 -4 0 -38 -30 -75 -66 -80 -78 -77 -89
23 -93 27 -1 28 -15 2 -63 -11 -22 -16 -40 -10 -43 5 -3 46 1 91 10 45 8 89
15 99 15 19 0 19 -1 6 -68 -13 -62 8 -62 139 -1 22 10 118 43 275 95 58 20
112 42 122 51 9 8 22 37 27 64 21 99 101 216 138 205 10 -3 30 -7 45 -10 14
-2 35 -9 46 -15 46 -25 173 -48 282 -52 19 0 50 -7 68 -14 41 -18 107 -29 154
-26 32 1 39 -3 52 -26 15 -30 85 -226 92 -257 5 -25 16 -127 16 -146 0 -8 2
-27 5 -43 6 -32 17 -33 104 -11 77 20 121 13 175 -26 23 -16 47 -30 53 -30 7
0 14 -6 17 -13 6 -17 50 -20 77 -6 12 6 36 26 52 45 39 43 79 48 162 23 36
-11 71 -18 79 -15 30 11 32 48 6 104 -21 46 -25 71 -27 171 -1 64 0 122 3 128
6 17 29 16 99 -2 32 -9 72 -18 88 -21 27 -4 135 -26 210 -42 34 -8 337 -8 375
0 14 2 35 10 48 17 12 6 22 9 22 7 0 -7 143 44 150 53 3 3 26 18 53 32 42 23
100 66 162 124 29 26 117 208 121 248 2 18 6 50 9 72 14 88 8 189 -15 255 -13
36 -30 76 -40 90 -9 14 -24 41 -33 60 -14 32 -25 45 -85 102 -10 9 -54 35 -98
57 -80 40 -149 55 -239 53 -135 -3 -302 -66 -389 -147 -27 -25 -54 -49 -61
-53 -6 -4 -24 -25 -41 -47 -16 -22 -37 -49 -46 -59 -10 -11 -18 -23 -18 -27 0
-14 -156 -193 -214 -246 -72 -66 -98 -73 -57 -15 40 58 124 256 135 322 1 3 5
10 9 16 3 7 9 29 13 50 3 22 10 56 15 77 42 162 42 516 -1 677 0 3 -4 16 -7
30 -3 14 -9 30 -14 36 -5 5 -15 36 -23 68 -9 32 -27 82 -41 112 -14 30 -37 79
-51 109 -14 30 -29 55 -34 55 -5 0 -11 14 -15 30 -4 17 -10 30 -15 30 -5 0
-19 17 -31 37 -13 21 -31 45 -41 55 -10 10 -18 23 -18 29 0 6 -33 44 -73 85
-66 67 -74 79 -75 117 -1 23 -5 50 -8 60 -3 10 -1 23 4 30 12 16 62 155 67
187 2 14 8 36 12 50 8 20 9 135 3 235 -11 173 -102 367 -250 534 -125 141
-328 248 -540 287 -52 9 -189 11 -240 3z"/>
</g>
</svg>
